<?xml version="1.0" encoding="UTF-8"?>
<svg version="1.1" xmlns="http://www.w3.org/2000/svg" width="100" height="100">
<path d="M0 0 C3.8497617 2.8675451 7.11563311 6.10063633 10.28125 9.69921875 C10.75304687 10.21871094 11.22484375 10.73820312 11.7109375 11.2734375 C20.29283447 21.85422351 21.58302111 35.27623291 20.56787109 48.34277344 C19.04944143 60.82648985 12.23359108 72.16195654 2.5859375 80.1015625 C-10.49226848 89.16764088 -25.23053722 92.04674306 -40.84814453 89.32861328 C-49.54670508 87.2213996 -56.33714972 82.83665346 -62.71875 76.69921875 C-63.44964844 75.99667969 -64.18054688 75.29414062 -64.93359375 74.5703125 C-74.92589516 64.16864306 -78.24586759 51.70359725 -78.03515625 37.5859375 C-76.91888532 23.87372047 -70.54425321 12.11606632 -60.71875 2.69921875 C-43.32421648 -11.66324012 -18.68278242 -12.04068932 0 0 Z M-22.71875 0.69921875 C-27.99875 2.34921875 -33.27875 3.99921875 -38.71875 5.69921875 C-38.71875 17.90921875 -38.71875 30.11921875 -38.71875 42.69921875 C-32.76380374 39.31110463 -32.76380374 39.31110463 -27.28125 35.44921875 C-26.26224609 34.66804688 -26.26224609 34.66804688 -25.22265625 33.87109375 C-24.72636719 33.484375 -24.23007812 33.09765625 -23.71875 32.69921875 C-24.04875 31.37921875 -24.37875 30.05921875 -24.71875 28.69921875 C-27.68875 29.02921875 -30.65875 29.35921875 -33.71875 29.69921875 C-32.83204141 25.93999912 -32.2178992 24.09732252 -29.15234375 21.65234375 C-28.16363281 21.0903125 -27.17492187 20.52828125 -26.15625 19.94921875 C-22.26996641 17.96818531 -22.26996641 17.96818531 -19.71875 14.69921875 C-24.33875 14.69921875 -28.95875 14.69921875 -33.71875 14.69921875 C-33.71875 14.03921875 -33.71875 13.37921875 -33.71875 12.69921875 C-32.8525 12.45171875 -31.98625 12.20421875 -31.09375 11.94921875 C-27.48944213 10.61428991 -24.73899021 9.07226463 -21.71875 6.69921875 C-21.56063612 3.64651412 -21.56063612 3.64651412 -22.71875 0.69921875 Z M-13.75390625 11.68359375 C-15.94285908 14.66967969 -17.5232843 17.18566365 -18.71875 20.69921875 C-17.0878704 29.3822467 -8.96437079 40.04191342 -1.7578125 45.06640625 C1.01693713 45.92753545 2.54458014 45.65576637 5.28125 44.69921875 C8.92584544 41.65743662 11.72391525 37.99301142 12.85546875 33.3359375 C12.82059633 26.23358773 8.58246014 20.63626755 4.125 15.44140625 C-0.14028757 11.32845038 -8.69195231 6.74794576 -13.75390625 11.68359375 Z M-47.71875 10.69921875 C-49.43853983 15.85858824 -49.71875 19.11502511 -49.71875 24.69921875 C-53.67875 21.72921875 -57.63875 18.75921875 -61.71875 15.69921875 C-63.69875 16.68921875 -63.69875 16.68921875 -65.71875 17.69921875 C-66.04875 24.95921875 -66.37875 32.21921875 -66.71875 39.69921875 C-65.00857274 37.13395285 -63.81457189 34.8196091 -62.59375 32.01171875 C-62.06394531 30.79935547 -62.06394531 30.79935547 -61.5234375 29.5625 C-61.25789063 28.94761719 -60.99234375 28.33273438 -60.71875 27.69921875 C-56.37124978 29.14046655 -53.48874964 31.35256149 -50.03125 34.32421875 C-46.79699205 37.54671429 -46.79699205 37.54671429 -42.71875 38.69921875 C-42.71875 28.79921875 -42.71875 18.89921875 -42.71875 8.69921875 C-44.9392555 8.69921875 -45.92250619 9.39285962 -47.71875 10.69921875 Z M-25.71875 38.69921875 C-27.28113065 40.42392937 -27.28113065 40.42392937 -28.87109375 42.6796875 C-29.78858398 43.93168945 -29.78858398 43.93168945 -30.72460938 45.20898438 C-31.36205078 46.09263672 -31.99949219 46.97628906 -32.65625 47.88671875 C-33.28982422 48.75103516 -33.92339844 49.61535156 -34.57617188 50.50585938 C-37.47558322 54.48454687 -40.22821571 58.44845016 -42.71875 62.69921875 C-41.12018334 64.8286415 -39.51527542 66.95272209 -37.90625 69.07421875 C-37.45443359 69.6775 -37.00261719 70.28078125 -36.53710938 70.90234375 C-34.40661722 73.70153052 -32.67061035 75.73131185 -29.71875 77.69921875 C-28.72875 77.20421875 -28.72875 77.20421875 -27.71875 76.69921875 C-29.39161852 70.50960522 -32.60088093 65.25715926 -35.71875 59.69921875 C-30.76875 60.02921875 -25.81875 60.35921875 -20.71875 60.69921875 C-22.13031979 57.17029428 -23.49259533 54.15059672 -25.34375 50.88671875 C-26.1275 49.50484375 -26.91125 48.12296875 -27.71875 46.69921875 C-24.08875 47.68921875 -20.45875 48.67921875 -16.71875 49.69921875 C-16.71875 49.03921875 -16.71875 48.37921875 -16.71875 47.69921875 C-16.05875 47.36921875 -15.39875 47.03921875 -14.71875 46.69921875 C-18.92990317 42.3593475 -18.92990317 42.3593475 -23.71875 38.69921875 C-24.37875 38.69921875 -25.03875 38.69921875 -25.71875 38.69921875 Z M-62.71875 44.69921875 C-66.14459522 50.00686628 -65.25383795 56.65746623 -64.71875 62.69921875 C-62.39460563 71.55045121 -54.82754035 76.16602809 -47.515625 80.81640625 C-45.60365778 81.91969827 -45.60365778 81.91969827 -42.71875 81.69921875 C-42.55285774 75.6717998 -43.14760867 70.12427082 -44.21875 64.19921875 C-44.36183594 63.37679687 -44.50492188 62.554375 -44.65234375 61.70703125 C-45.00181912 59.70337248 -45.35943156 57.70113577 -45.71875 55.69921875 C-48.02875 56.35921875 -50.33875 57.01921875 -52.71875 57.69921875 C-52.71875 58.35921875 -52.71875 59.01921875 -52.71875 59.69921875 C-53.37875 60.02921875 -54.03875 60.35921875 -54.71875 60.69921875 C-54.38875 61.35921875 -54.05875 62.01921875 -53.71875 62.69921875 C-52.39875 62.69921875 -51.07875 62.69921875 -49.71875 62.69921875 C-49.574375 63.81296875 -49.43 64.92671875 -49.28125 66.07421875 C-48.93502965 69.52063922 -48.93502965 69.52063922 -47.71875 71.69921875 C-57.06633835 66.36746326 -57.06633835 66.36746326 -59.71875 61.69921875 C-60.66283803 57.80398146 -61.31806799 54.29740005 -59.88671875 50.48046875 C-58.71875 48.69921875 -58.71875 48.69921875 -56.15625 47.76171875 C-51.57959701 47.67850688 -47.93962927 49.03900624 -43.71875 50.69921875 C-44.90751803 46.34040265 -45.91495125 43.30181789 -49.71875 40.69921875 C-55.55411049 39.95822059 -58.5190941 40.25252427 -62.71875 44.69921875 Z M-17.71875 62.69921875 C-18.37875 63.35921875 -19.03875 64.01921875 -19.71875 64.69921875 C-20.11564576 67.72094409 -20.11564576 67.72094409 -20.09375 71.13671875 C-20.12210938 72.29042969 -20.15046875 73.44414063 -20.1796875 74.6328125 C-20.00368358 77.74512295 -20.00368358 77.74512295 -17.96875 79.609375 C-14.50749457 81.2859206 -12.40962453 80.96369584 -8.73046875 80.05078125 C-1.97915456 77.0210086 4.31237284 72.00236771 8.28125 65.69921875 C10.00814063 60.45741798 9.76942536 55.13191311 9.28125 49.69921875 C-5.16044341 47.73903531 -10.38986513 50.22247384 -17.71875 62.69921875 Z " fill="#CFD2CD" transform="translate(78.71875,9.30078125)"/>
<path d="M0 0 C2.3828125 0.0234375 2.3828125 0.0234375 5.125 0.375 C6.03507812 0.48585938 6.94515625 0.59671875 7.8828125 0.7109375 C8.93082031 0.85402344 8.93082031 0.85402344 10 1 C10.66 2.98 11.32 4.96 12 7 C9.5735637 8.52775619 8.39107497 9.04888437 5.5 8.6875 C4.675 8.460625 3.85 8.23375 3 8 C2.236875 7.814375 1.47375 7.62875 0.6875 7.4375 C0.130625 7.293125 -0.42625 7.14875 -1 7 C-1.625 4.625 -1.625 4.625 -2 2 C-1.34 1.34 -0.68 0.68 0 0 Z " fill="#C8CDCC" transform="translate(64,76)"/>
<path d="M0 0 C0.33 0 0.66 0 1 0 C1.20145347 3.49186021 1.34907805 6.19917389 -0.0625 9.4375 C-2 11 -2 11 -5.5625 11.4375 C-6.696875 11.293125 -7.83125 11.14875 -9 11 C-9.66 10.01 -10.32 9.02 -11 8 C-9.9275 7.979375 -8.855 7.95875 -7.75 7.9375 C-4.07050859 7.40918155 -4.07050859 7.40918155 -2.64453125 5.375 C-1.67093205 3.63165991 -0.82627341 1.8178015 0 0 Z " fill="#CBCABE" transform="translate(85,38)"/>
<path d="M0 0 C1.32 0 2.64 0 4 0 C5.125 3.75 5.125 3.75 4 6 C2.35 6 0.7 6 -1 6 C-1.625 4.125 -1.625 4.125 -2 2 C-1.34 1.34 -0.68 0.68 0 0 Z " fill="#C3CAC9" transform="translate(73,63)"/>
<path d="M0 0 C1.98 0.495 1.98 0.495 4 1 C3.67 2.65 3.34 4.3 3 6 C2.01 6 1.02 6 0 6 C-1.125 2.25 -1.125 2.25 0 0 Z " fill="#CDCCC2" transform="translate(75,27)"/>
<path d="M0 0 C0.99 0.33 1.98 0.66 3 1 C2.67 2.32 2.34 3.64 2 5 C1.01 4.67 0.02 4.34 -1 4 C-0.67 2.68 -0.34 1.36 0 0 Z " fill="#B3C0C4" transform="translate(80,69)"/>
<path d="M0 0 C0.99 0.33 1.98 0.66 3 1 C2.67 1.99 2.34 2.98 2 4 C1.01 3.67 0.02 3.34 -1 3 C-0.67 2.01 -0.34 1.02 0 0 Z " fill="#CCCCC1" transform="translate(68,32)"/>
</svg>
